<mxfile host="app.diagrams.net" modified="2023-05-03T06:40:05.123Z" agent="Mozilla/5.0 (Windows NT 10.0; Win64; x64) AppleWebKit/537.36 (KHTML, like Gecko) Chrome/112.0.0.0 Safari/537.36" etag="8QjDjlmGkKsb_ZBve88c" version="21.2.6" type="device">
  <diagram id="CqRlMq9S8sLy5RM23WdE" name="Страница 1">
    <mxGraphModel dx="1195" dy="637" grid="0" gridSize="10" guides="1" tooltips="1" connect="1" arrows="1" fold="1" page="0" pageScale="1" pageWidth="827" pageHeight="1169" math="0" shadow="0">
      <root>
        <mxCell id="0" />
        <mxCell id="1" parent="0" />
        <mxCell id="LKCHvA9puJ1n5bIvV-6V-54" value="" style="rounded=0;whiteSpace=wrap;html=1;fontFamily=Times New Roman;fontSize=14;" parent="1" vertex="1">
          <mxGeometry x="120" y="300" width="890" height="230" as="geometry" />
        </mxCell>
        <mxCell id="LKCHvA9puJ1n5bIvV-6V-13" value="" style="rounded=0;whiteSpace=wrap;html=1;fontFamily=Times New Roman;fontSize=14;" parent="1" vertex="1">
          <mxGeometry x="120" y="100" width="820" height="180" as="geometry" />
        </mxCell>
        <mxCell id="LKCHvA9puJ1n5bIvV-6V-1" value="" style="rounded=1;whiteSpace=wrap;html=1;" parent="1" vertex="1">
          <mxGeometry x="200" y="160" width="120" height="60" as="geometry" />
        </mxCell>
        <mxCell id="LKCHvA9puJ1n5bIvV-6V-9" style="edgeStyle=orthogonalEdgeStyle;rounded=0;orthogonalLoop=1;jettySize=auto;html=1;exitX=1;exitY=0.5;exitDx=0;exitDy=0;entryX=0;entryY=0.5;entryDx=0;entryDy=0;fontFamily=Times New Roman;fontSize=14;" parent="1" source="LKCHvA9puJ1n5bIvV-6V-2" target="LKCHvA9puJ1n5bIvV-6V-4" edge="1">
          <mxGeometry relative="1" as="geometry" />
        </mxCell>
        <mxCell id="LKCHvA9puJ1n5bIvV-6V-2" value="&lt;font face=&quot;Times New Roman&quot;&gt;&lt;span style=&quot;font-size: 14px;&quot;&gt;Сбор банковских данных&lt;/span&gt;&lt;/font&gt;" style="text;html=1;strokeColor=none;fillColor=none;align=center;verticalAlign=middle;whiteSpace=wrap;rounded=0;" parent="1" vertex="1">
          <mxGeometry x="200" y="160" width="120" height="60" as="geometry" />
        </mxCell>
        <mxCell id="LKCHvA9puJ1n5bIvV-6V-3" value="" style="rounded=1;whiteSpace=wrap;html=1;" parent="1" vertex="1">
          <mxGeometry x="360" y="160" width="120" height="60" as="geometry" />
        </mxCell>
        <mxCell id="LKCHvA9puJ1n5bIvV-6V-11" style="edgeStyle=orthogonalEdgeStyle;rounded=0;orthogonalLoop=1;jettySize=auto;html=1;exitX=1;exitY=0.5;exitDx=0;exitDy=0;entryX=0;entryY=0.5;entryDx=0;entryDy=0;fontFamily=Times New Roman;fontSize=14;" parent="1" source="LKCHvA9puJ1n5bIvV-6V-4" target="LKCHvA9puJ1n5bIvV-6V-5" edge="1">
          <mxGeometry relative="1" as="geometry" />
        </mxCell>
        <mxCell id="LKCHvA9puJ1n5bIvV-6V-4" value="&lt;font face=&quot;Times New Roman&quot;&gt;&lt;span style=&quot;font-size: 14px;&quot;&gt;Сохранение собранных данных в .csv файл&lt;/span&gt;&lt;/font&gt;" style="text;html=1;strokeColor=none;fillColor=none;align=center;verticalAlign=middle;whiteSpace=wrap;rounded=0;" parent="1" vertex="1">
          <mxGeometry x="360" y="160" width="120" height="60" as="geometry" />
        </mxCell>
        <mxCell id="LKCHvA9puJ1n5bIvV-6V-12" style="edgeStyle=orthogonalEdgeStyle;rounded=0;orthogonalLoop=1;jettySize=auto;html=1;exitX=1;exitY=0.5;exitDx=0;exitDy=0;entryX=0;entryY=0.5;entryDx=0;entryDy=0;fontFamily=Times New Roman;fontSize=14;" parent="1" source="LKCHvA9puJ1n5bIvV-6V-5" target="LKCHvA9puJ1n5bIvV-6V-8" edge="1">
          <mxGeometry relative="1" as="geometry" />
        </mxCell>
        <mxCell id="LKCHvA9puJ1n5bIvV-6V-5" value="" style="rounded=1;whiteSpace=wrap;html=1;" parent="1" vertex="1">
          <mxGeometry x="520" y="160" width="180" height="60" as="geometry" />
        </mxCell>
        <mxCell id="LKCHvA9puJ1n5bIvV-6V-6" value="&lt;font face=&quot;Times New Roman&quot;&gt;&lt;span style=&quot;font-size: 14px;&quot;&gt;Создание векторного представления с помощью OpenAI Embeddings&lt;/span&gt;&lt;/font&gt;" style="text;html=1;strokeColor=none;fillColor=none;align=center;verticalAlign=middle;whiteSpace=wrap;rounded=0;" parent="1" vertex="1">
          <mxGeometry x="525" y="160" width="170" height="60" as="geometry" />
        </mxCell>
        <mxCell id="LKCHvA9puJ1n5bIvV-6V-7" value="" style="rounded=1;whiteSpace=wrap;html=1;" parent="1" vertex="1">
          <mxGeometry x="750" y="160" width="120" height="60" as="geometry" />
        </mxCell>
        <mxCell id="LKCHvA9puJ1n5bIvV-6V-8" value="&lt;font face=&quot;Times New Roman&quot;&gt;&lt;span style=&quot;font-size: 14px;&quot;&gt;Сохранение полученных данных в .csv файл&lt;/span&gt;&lt;/font&gt;" style="text;html=1;strokeColor=none;fillColor=none;align=center;verticalAlign=middle;whiteSpace=wrap;rounded=0;" parent="1" vertex="1">
          <mxGeometry x="750" y="160" width="120" height="60" as="geometry" />
        </mxCell>
        <mxCell id="LKCHvA9puJ1n5bIvV-6V-30" value="" style="rounded=1;whiteSpace=wrap;html=1;fontFamily=Times New Roman;fontSize=14;" parent="1" vertex="1">
          <mxGeometry x="200" y="340" width="120" height="60" as="geometry" />
        </mxCell>
        <mxCell id="LKCHvA9puJ1n5bIvV-6V-46" style="edgeStyle=orthogonalEdgeStyle;rounded=0;orthogonalLoop=1;jettySize=auto;html=1;exitX=1;exitY=0.5;exitDx=0;exitDy=0;entryX=0;entryY=0.5;entryDx=0;entryDy=0;fontFamily=Times New Roman;fontSize=14;" parent="1" source="LKCHvA9puJ1n5bIvV-6V-31" target="LKCHvA9puJ1n5bIvV-6V-33" edge="1">
          <mxGeometry relative="1" as="geometry" />
        </mxCell>
        <mxCell id="LKCHvA9puJ1n5bIvV-6V-31" value="Считывание пользовательского запроса из формы" style="text;html=1;strokeColor=none;fillColor=none;align=center;verticalAlign=middle;whiteSpace=wrap;rounded=0;fontFamily=Times New Roman;fontSize=14;" parent="1" vertex="1">
          <mxGeometry x="200" y="340" width="120" height="60" as="geometry" />
        </mxCell>
        <mxCell id="LKCHvA9puJ1n5bIvV-6V-32" value="" style="rounded=1;whiteSpace=wrap;html=1;fontFamily=Times New Roman;fontSize=14;" parent="1" vertex="1">
          <mxGeometry x="380" y="340" width="120" height="60" as="geometry" />
        </mxCell>
        <mxCell id="LKCHvA9puJ1n5bIvV-6V-47" style="edgeStyle=orthogonalEdgeStyle;rounded=0;orthogonalLoop=1;jettySize=auto;html=1;exitX=1;exitY=0.5;exitDx=0;exitDy=0;entryX=0;entryY=0.5;entryDx=0;entryDy=0;fontFamily=Times New Roman;fontSize=14;" parent="1" source="LKCHvA9puJ1n5bIvV-6V-33" target="LKCHvA9puJ1n5bIvV-6V-35" edge="1">
          <mxGeometry relative="1" as="geometry" />
        </mxCell>
        <mxCell id="LKCHvA9puJ1n5bIvV-6V-33" value="Загрузка предобработанных данных" style="text;html=1;strokeColor=none;fillColor=none;align=center;verticalAlign=middle;whiteSpace=wrap;rounded=0;fontFamily=Times New Roman;fontSize=14;" parent="1" vertex="1">
          <mxGeometry x="380" y="340" width="120" height="60" as="geometry" />
        </mxCell>
        <mxCell id="LKCHvA9puJ1n5bIvV-6V-34" value="" style="rounded=1;whiteSpace=wrap;html=1;fontFamily=Times New Roman;fontSize=14;" parent="1" vertex="1">
          <mxGeometry x="560" y="340" width="160" height="60" as="geometry" />
        </mxCell>
        <mxCell id="LKCHvA9puJ1n5bIvV-6V-48" style="edgeStyle=orthogonalEdgeStyle;rounded=0;orthogonalLoop=1;jettySize=auto;html=1;exitX=1;exitY=0.5;exitDx=0;exitDy=0;entryX=0;entryY=0.5;entryDx=0;entryDy=0;fontFamily=Times New Roman;fontSize=14;" parent="1" source="LKCHvA9puJ1n5bIvV-6V-35" target="LKCHvA9puJ1n5bIvV-6V-37" edge="1">
          <mxGeometry relative="1" as="geometry" />
        </mxCell>
        <mxCell id="LKCHvA9puJ1n5bIvV-6V-35" value="Представление пользовательского запроса в векторном виде" style="text;html=1;strokeColor=none;fillColor=none;align=center;verticalAlign=middle;whiteSpace=wrap;rounded=0;fontFamily=Times New Roman;fontSize=14;" parent="1" vertex="1">
          <mxGeometry x="560" y="340" width="160" height="60" as="geometry" />
        </mxCell>
        <mxCell id="LKCHvA9puJ1n5bIvV-6V-36" value="" style="rounded=1;whiteSpace=wrap;html=1;fontFamily=Times New Roman;fontSize=14;" parent="1" vertex="1">
          <mxGeometry x="780" y="340" width="160" height="60" as="geometry" />
        </mxCell>
        <mxCell id="LKCHvA9puJ1n5bIvV-6V-49" style="edgeStyle=orthogonalEdgeStyle;rounded=0;orthogonalLoop=1;jettySize=auto;html=1;exitX=1;exitY=0.5;exitDx=0;exitDy=0;entryX=0;entryY=0.5;entryDx=0;entryDy=0;fontFamily=Times New Roman;fontSize=14;" parent="1" source="LKCHvA9puJ1n5bIvV-6V-37" target="LKCHvA9puJ1n5bIvV-6V-39" edge="1">
          <mxGeometry relative="1" as="geometry" />
        </mxCell>
        <mxCell id="LKCHvA9puJ1n5bIvV-6V-37" value="Попарный расчет скалярного произведения с данными" style="text;html=1;strokeColor=none;fillColor=none;align=center;verticalAlign=middle;whiteSpace=wrap;rounded=0;fontFamily=Times New Roman;fontSize=14;" parent="1" vertex="1">
          <mxGeometry x="780" y="340" width="160" height="60" as="geometry" />
        </mxCell>
        <mxCell id="LKCHvA9puJ1n5bIvV-6V-38" value="" style="rounded=1;whiteSpace=wrap;html=1;fontFamily=Times New Roman;fontSize=14;" parent="1" vertex="1">
          <mxGeometry x="200" y="440" width="180" height="60" as="geometry" />
        </mxCell>
        <mxCell id="LKCHvA9puJ1n5bIvV-6V-50" style="edgeStyle=orthogonalEdgeStyle;rounded=0;orthogonalLoop=1;jettySize=auto;html=1;exitX=1;exitY=0.5;exitDx=0;exitDy=0;entryX=0;entryY=0.5;entryDx=0;entryDy=0;fontFamily=Times New Roman;fontSize=14;" parent="1" source="LKCHvA9puJ1n5bIvV-6V-39" target="LKCHvA9puJ1n5bIvV-6V-41" edge="1">
          <mxGeometry relative="1" as="geometry" />
        </mxCell>
        <mxCell id="LKCHvA9puJ1n5bIvV-6V-39" value="Сортировка данных по возрастанию вычисленного скалярного произведения" style="text;html=1;strokeColor=none;fillColor=none;align=center;verticalAlign=middle;whiteSpace=wrap;rounded=0;fontFamily=Times New Roman;fontSize=14;" parent="1" vertex="1">
          <mxGeometry x="200" y="440" width="180" height="60" as="geometry" />
        </mxCell>
        <mxCell id="LKCHvA9puJ1n5bIvV-6V-40" value="" style="rounded=1;whiteSpace=wrap;html=1;fontFamily=Times New Roman;fontSize=14;" parent="1" vertex="1">
          <mxGeometry x="420" y="440" width="140" height="60" as="geometry" />
        </mxCell>
        <mxCell id="LKCHvA9puJ1n5bIvV-6V-51" style="edgeStyle=orthogonalEdgeStyle;rounded=0;orthogonalLoop=1;jettySize=auto;html=1;exitX=1;exitY=0.5;exitDx=0;exitDy=0;entryX=0;entryY=0.5;entryDx=0;entryDy=0;fontFamily=Times New Roman;fontSize=14;" parent="1" source="LKCHvA9puJ1n5bIvV-6V-41" target="LKCHvA9puJ1n5bIvV-6V-43" edge="1">
          <mxGeometry relative="1" as="geometry" />
        </mxCell>
        <mxCell id="LKCHvA9puJ1n5bIvV-6V-41" value="Формирование дополнительного контекста" style="text;html=1;strokeColor=none;fillColor=none;align=center;verticalAlign=middle;whiteSpace=wrap;rounded=0;fontFamily=Times New Roman;fontSize=14;" parent="1" vertex="1">
          <mxGeometry x="420" y="440" width="140" height="60" as="geometry" />
        </mxCell>
        <mxCell id="LKCHvA9puJ1n5bIvV-6V-42" value="" style="rounded=1;whiteSpace=wrap;html=1;fontFamily=Times New Roman;fontSize=14;" parent="1" vertex="1">
          <mxGeometry x="600" y="440" width="130" height="60" as="geometry" />
        </mxCell>
        <mxCell id="LKCHvA9puJ1n5bIvV-6V-53" style="edgeStyle=orthogonalEdgeStyle;rounded=0;orthogonalLoop=1;jettySize=auto;html=1;exitX=1;exitY=0.5;exitDx=0;exitDy=0;entryX=0;entryY=0.5;entryDx=0;entryDy=0;fontFamily=Times New Roman;fontSize=14;" parent="1" source="LKCHvA9puJ1n5bIvV-6V-43" target="LKCHvA9puJ1n5bIvV-6V-45" edge="1">
          <mxGeometry relative="1" as="geometry" />
        </mxCell>
        <mxCell id="LKCHvA9puJ1n5bIvV-6V-43" value="Формирование запроса к языковой модели" style="text;html=1;strokeColor=none;fillColor=none;align=center;verticalAlign=middle;whiteSpace=wrap;rounded=0;fontFamily=Times New Roman;fontSize=14;" parent="1" vertex="1">
          <mxGeometry x="600" y="440" width="130" height="60" as="geometry" />
        </mxCell>
        <mxCell id="LKCHvA9puJ1n5bIvV-6V-44" value="" style="rounded=1;whiteSpace=wrap;html=1;fontFamily=Times New Roman;fontSize=14;" parent="1" vertex="1">
          <mxGeometry x="770" y="440" width="170" height="60" as="geometry" />
        </mxCell>
        <mxCell id="LKCHvA9puJ1n5bIvV-6V-45" value="Запрос к языковой модели и вывод сгенерированного ответа" style="text;html=1;strokeColor=none;fillColor=none;align=center;verticalAlign=middle;whiteSpace=wrap;rounded=0;fontFamily=Times New Roman;fontSize=14;" parent="1" vertex="1">
          <mxGeometry x="770" y="440" width="170" height="60" as="geometry" />
        </mxCell>
        <mxCell id="lhG5aS79jRC6Itv7Mk0s-1" value="" style="rounded=1;whiteSpace=wrap;html=1;" vertex="1" parent="1">
          <mxGeometry x="120" y="591" width="582" height="187" as="geometry" />
        </mxCell>
        <mxCell id="lhG5aS79jRC6Itv7Mk0s-4" value="Правило:&amp;nbsp;Используйте приведенный ниже контекст, чтобы ответить на вопрос. Если ты не можешь сформировать ответ, основываясь на контексте, напиши &quot;Обратитесь в ближайшее отделение банка для уточнения этого вопроса.&quot;" style="text;html=1;strokeColor=none;fillColor=none;align=left;verticalAlign=middle;whiteSpace=wrap;rounded=0;fontFamily=Times New Roman;fontSize=14;" vertex="1" parent="1">
          <mxGeometry x="140" y="600" width="580" height="60" as="geometry" />
        </mxCell>
        <mxCell id="lhG5aS79jRC6Itv7Mk0s-5" value="Контекст:&lt;br&gt;---&lt;br&gt;Наиболее близкая семантически информация к входящему запросу от пользователя&lt;br&gt;---" style="text;html=1;strokeColor=none;fillColor=none;align=left;verticalAlign=middle;whiteSpace=wrap;rounded=0;fontFamily=Times New Roman;fontSize=14;" vertex="1" parent="1">
          <mxGeometry x="140" y="670" width="580" height="60" as="geometry" />
        </mxCell>
        <mxCell id="lhG5aS79jRC6Itv7Mk0s-6" value="Вопрос: Что такое вклад?" style="text;html=1;strokeColor=none;fillColor=none;align=left;verticalAlign=middle;whiteSpace=wrap;rounded=0;fontFamily=Times New Roman;fontSize=14;" vertex="1" parent="1">
          <mxGeometry x="140" y="718" width="580" height="60" as="geometry" />
        </mxCell>
      </root>
    </mxGraphModel>
  </diagram>
</mxfile>
